<svg width="32" height="32" fill="none" xmlns="http://www.w3.org/2000/svg"><path fill-rule="evenodd" clip-rule="evenodd" d="M17.05 24.636l3.619-3.618a1 1 0 011.32-.083l4.774 3.713a1 1 0 01.093 1.496l-.748.748c-.787.787-1.945 1.072-2.98.663-2.714-1.071-8.157-3.584-12.442-7.869-4.244-4.244-6.03-8.907-6.707-11.233-.27-.93.042-1.9.726-2.584l.938-.938a1 1 0 011.496.093l3.712 4.773a1 1 0 01-.082 1.321l-3.618 3.618" fill="#F03C40"/><path d="M17.05 24.636l3.619-3.618a1 1 0 011.32-.083l4.774 3.713a1 1 0 01.093 1.496l-.748.748c-.787.787-1.945 1.072-2.98.663-2.714-1.071-8.157-3.584-12.442-7.869-4.244-4.244-6.03-8.907-6.707-11.233-.27-.93.042-1.9.726-2.584l.938-.938a1 1 0 011.496.093l3.712 4.773a1 1 0 01-.082 1.321l-3.618 3.618" stroke="#F03C40" stroke-width="2" stroke-linecap="round"/></svg>